<svg width="66" height="66" fill="none" xmlns="http://www.w3.org/2000/svg"><mask id="a" maskUnits="userSpaceOnUse" x="50" y="26" width="16" height="25"><path d="M52.408 26.415h2.708c1.946 0 3.835.555 5.463 1.604a10.069 10.069 0 014.639 8.498v3.881c0 5.57-4.532 10.102-10.102 10.102h-2.708a1.908 1.908 0 01-1.908-1.908V28.323c0-1.054.854-1.908 1.908-1.908z" fill="#C4C4C4"/></mask><g mask="url(#a)"><path d="M41.475 54.273a.73.73 0 01-.624-.357.744.744 0 01.238-1.01l.565-.356-.194.118a.74.74 0 01-.995-.252.744.744 0 01.238-1.01l2.926-1.887-2.6 1.5a.74.74 0 01-.995-.252.754.754 0 01.223-1.01l5.319-3.477-5.022 2.897a.74.74 0 01-.772-1.263l8.29-5.556-8.082 4.665a.754.754 0 01-.996-.238.731.731 0 01.193-.995l12.45-8.87-12.42 7.176a.754.754 0 01-.995-.238.732.732 0 01.208-.995l8.928-6.18-8.765 5.066a.74.74 0 01-.995-.253c-.208-.342-.12-.787.208-.995l5.036-3.402-4.769 2.748a.741.741 0 01-.995-.252.72.72 0 01.223-.996l3.268-2.184-2.942 1.709a.733.733 0 01-.98-.238.742.742 0 01.178-.995l8.691-6.433-8.602 4.962a.747.747 0 01-.98-.223.727.727 0 01.163-.995l7.696-5.928-7.607 4.397a.733.733 0 01-.98-.237.742.742 0 01.178-.996l3.759-2.763-3.491 2.006a.733.733 0 01-.981-.238.727.727 0 01.163-.995L37.91 27.1l-2.778 1.605a.747.747 0 01-.98-.223.727.727 0 01.163-.995l1.545-1.204-1.189.683a.727.727 0 01-.921-.148.739.739 0 01-.03-.936l2.333-3.016-2.14 1.233a.744.744 0 01-.817-.044.765.765 0 01-.282-.773l.223-.906a.713.713 0 01-.624-.372.733.733 0 01.267-1.01l1.07-.624a.744.744 0 01.817.045.765.765 0 01.282.772l-.193.758 3.922-2.258a.724.724 0 01.921.148.74.74 0 01.03.936l-2.332 3.016 7.027-4.056a.743.743 0 01.98.223.727.727 0 01-.163.996l-1.545 1.218 3.714-2.154a.733.733 0 01.98.237.727.727 0 01-.163.996l-3.075 2.347 5.066-2.927a.733.733 0 01.98.238.742.742 0 01-.178.995l-3.759 2.764 5.66-3.269a.747.747 0 01.981.223.742.742 0 01-.163.995l-7.696 5.928 10.147-5.868a.733.733 0 01.98.238.742.742 0 01-.178.995l-8.69 6.433 10.726-6.195a.741.741 0 01.772 1.263l-3.268 2.198 4.234-2.436a.727.727 0 01.995.252c.208.342.12.788-.208.996l-5.036 3.387 5.958-3.447a.75.75 0 01.995.238.732.732 0 01-.208.995l-8.944 6.18 10.132-5.853a.755.755 0 01.996.238.731.731 0 01-.193.995l-12.45 8.87 13.861-7.993a.74.74 0 01.773 1.263l-8.29 5.556 9.003-5.2a.741.741 0 01.995.253.754.754 0 01-.223 1.01l-5.318 3.477 5.69-3.284a.741.741 0 01.995.253.744.744 0 01-.238 1.01l-2.926 1.887 3.09-1.783a.738.738 0 01.995.253.744.744 0 01-.238 1.01l-.564.356.639-.371a.755.755 0 01.995.238.746.746 0 01-.193.995l-8.602 6.047 8.944-5.17a.741.741 0 01.772 1.262l-.193.12.03-.016a.755.755 0 01.995.238.731.731 0 01-.193.995l-1.664 1.189 1.56-.906a.747.747 0 01.936.163.74.74 0 01-.015.951l-2.823 3.254 2.734-1.575a.741.741 0 011.055.92l-.297.7a.76.76 0 01.728.356.733.733 0 01-.268 1.01l-1.575.906a.741.741 0 01-1.054-.92l.252-.61-4.665 2.69a.748.748 0 01-.936-.164.74.74 0 01.015-.951l2.823-3.254-10.89 6.285a.754.754 0 01-.995-.238.731.731 0 01.193-.995l1.664-1.19-6.15 3.552a.741.741 0 01-.773-1.263l.178-.119-4.115 2.377a.754.754 0 01-.996-.238.746.746 0 01.193-.995l8.602-6.047-15.317 8.84c-.074.09-.193.119-.327.119z" fill="#C6B5DD"/></g><path d="M60.216 28.395h0a9.568 9.568 0 014.41 8.078v3.88c0 5.295-4.309 9.603-9.603 9.603h-2.708c-.777 0-1.408-.63-1.408-1.408V28.279c0-.778.63-1.408 1.408-1.408h2.708c1.85 0 3.646.527 5.193 1.524zM42.858 65c7.275 0 13.459-4.758 15.606-11.325M6.22 23.288C8.334 10.658 19.34 1 32.563 1c13.221 0 24.228 9.658 26.342 22.289" stroke="#263238"/><mask id="b" maskUnits="userSpaceOnUse" x="0" y="26" width="15" height="25"><path d="M12.81 26.415h-2.708c-1.946 0-3.835.555-5.463 1.604A10.069 10.069 0 000 36.517v3.881C0 45.968 4.532 50.5 10.102 50.5h2.708a1.908 1.908 0 001.908-1.908V28.323a1.908 1.908 0 00-1.908-1.908z" fill="#C4C4C4"/></mask><g mask="url(#b)"><path d="M-.835 54.688a.73.73 0 01-.624-.357.744.744 0 01.238-1.01l.564-.356-.193.118a.741.741 0 01-.995-.252.744.744 0 01.237-1.01l2.927-1.887-2.6 1.5a.741.741 0 01-.995-.252.754.754 0 01.223-1.01l5.318-3.477-5.021 2.897a.741.741 0 01-.773-1.263l8.29-5.556-8.082 4.665a.755.755 0 01-.995-.238.731.731 0 01.193-.995l12.45-8.87-12.42 7.176a.754.754 0 01-.996-.238.732.732 0 01.208-.995l8.929-6.18-8.765 5.066a.741.741 0 01-.996-.253c-.208-.341-.119-.787.208-.995l5.037-3.402-4.77 2.748a.74.74 0 01-.995-.252.72.72 0 01.223-.996l3.269-2.184-2.942 1.709a.733.733 0 01-.98-.238.742.742 0 01.178-.995l8.69-6.433-8.601 4.962a.747.747 0 01-.98-.223.727.727 0 01.163-.995l7.695-5.928-7.606 4.398a.733.733 0 01-.98-.238.742.742 0 01.178-.996l3.758-2.763-3.49 2.006a.733.733 0 01-.981-.238.727.727 0 01.163-.995l3.075-2.348-2.778 1.605a.747.747 0 01-.98-.223.727.727 0 01.163-.995l1.545-1.204-1.188.684a.727.727 0 01-.922-.149.739.739 0 01-.03-.936l2.333-3.016-2.14 1.233a.744.744 0 01-.816-.044.765.765 0 01-.283-.773l.223-.906a.713.713 0 01-.624-.372.733.733 0 01.268-1.01l1.07-.624a.744.744 0 01.817.045.765.765 0 01.282.772l-.193.758 3.922-2.258a.724.724 0 01.92.148.739.739 0 01.03.936l-2.332 3.016 7.027-4.056a.743.743 0 01.98.223.727.727 0 01-.163.996l-1.545 1.218L4.9 20.429a.733.733 0 01.981.238.727.727 0 01-.163.995L2.64 24.009l5.066-2.927a.733.733 0 01.98.238.742.742 0 01-.177.995L4.75 25.08l5.661-3.269a.747.747 0 01.98.223.742.742 0 01-.163.996l-7.695 5.927 10.147-5.868a.733.733 0 01.98.238.742.742 0 01-.178.995l-8.691 6.433 10.726-6.195a.74.74 0 01.773 1.263l-3.27 2.197 4.235-2.436a.727.727 0 01.995.253c.208.341.119.787-.208.995l-5.036 3.387 5.957-3.447a.751.751 0 01.995.238.732.732 0 01-.208.996l-8.943 6.18 10.132-5.854a.755.755 0 01.995.238.731.731 0 01-.193.995l-12.45 8.87 13.862-7.993a.74.74 0 01.772 1.263l-8.29 5.556 9.003-5.2a.741.741 0 01.996.253.754.754 0 01-.223 1.01l-5.319 3.477 5.69-3.284a.74.74 0 01.996.253.744.744 0 01-.238 1.01l-2.927 1.887 3.09-1.783a.737.737 0 01.996.253.744.744 0 01-.238 1.01l-.565.357.64-.372a.755.755 0 01.995.238.746.746 0 01-.194.995l-8.601 6.047 8.943-5.17a.74.74 0 01.773 1.263l-.193.118.03-.014a.754.754 0 01.995.237.731.731 0 01-.193.996l-1.664 1.188 1.56-.906a.747.747 0 01.936.163.74.74 0 01-.015.951l-2.823 3.254 2.734-1.575a.741.741 0 011.054.921l-.297.698a.76.76 0 01.728.357.733.733 0 01-.267 1.01l-1.575.906a.741.741 0 01-1.055-.92l.253-.61-4.665 2.69a.747.747 0 01-.936-.164.74.74 0 01.015-.951l2.822-3.254-10.89 6.285a.754.754 0 01-.995-.238.731.731 0 01.193-.995l1.664-1.189-6.15 3.55a.74.74 0 01-.773-1.262l.178-.119L7.01 53.01a.755.755 0 01-.995-.237.746.746 0 01.193-.996l8.602-6.047-15.317 8.84c-.075.09-.193.119-.327.119z" fill="#C6B5DD"/></g><path d="M4.91 28.395h0a9.563 9.563 0 015.192-1.524h2.708c.778 0 1.408.63 1.408 1.408v20.269c0 .777-.63 1.408-1.408 1.408h-2.708C4.808 49.956.5 45.648.5 40.354v-3.881c0-3.281 1.648-6.3 4.41-8.078z" stroke="#263238"/></svg>