<svg width="70" height="65" fill="none" xmlns="http://www.w3.org/2000/svg"><path d="M34.695 34.688a.73.73 0 01-.624-.357.744.744 0 01.237-1.01l.565-.356-.193.118a.741.741 0 01-.995-.252.744.744 0 01.237-1.01l2.927-1.887-2.6 1.5a.741.741 0 01-.995-.252.754.754 0 01.223-1.01l5.318-3.477-5.021 2.897A.741.741 0 0133 28.33l8.29-5.556-8.082 4.665a.755.755 0 01-.995-.238.731.731 0 01.193-.995l12.45-8.87-12.42 7.176a.754.754 0 01-.996-.238.732.732 0 01.208-.995l8.929-6.18-8.766 5.066a.741.741 0 01-.995-.253c-.208-.341-.119-.787.208-.995l5.037-3.402-4.77 2.748a.74.74 0 01-.995-.252.72.72 0 01.223-.996l3.268-2.184-2.941 1.709a.733.733 0 01-.98-.238.742.742 0 01.178-.995l8.69-6.433-8.601 4.962a.747.747 0 01-.98-.223.727.727 0 01.163-.995l7.695-5.928-7.606 4.397a.733.733 0 01-.98-.237.742.742 0 01.178-.996l3.758-2.763-3.491 2.006a.733.733 0 01-.98-.238.727.727 0 01.163-.995l3.075-2.348-2.778 1.605a.747.747 0 01-.98-.223.727.727 0 01.163-.995l1.545-1.204-1.189.684a.727.727 0 01-.92-.149.74.74 0 01-.03-.936l2.332-3.016-2.14 1.233a.744.744 0 01-.816-.044.765.765 0 01-.283-.773l.223-.906a.713.713 0 01-.624-.371.733.733 0 01.268-1.01l1.07-.625a.744.744 0 01.816.045.765.765 0 01.283.772l-.194.758L31.798.102a.724.724 0 01.92.148.74.74 0 01.03.936l-2.332 3.016L37.443.146a.743.743 0 01.98.223.727.727 0 01-.163.996l-1.545 1.218L40.43.429a.733.733 0 01.98.237.727.727 0 01-.163.996l-3.075 2.347 5.066-2.927a.733.733 0 01.98.238.742.742 0 01-.178.996l-3.758 2.763 5.66-3.269a.747.747 0 01.98.223.742.742 0 01-.163.996l-7.696 5.927L49.21 3.088a.733.733 0 01.98.238.742.742 0 01-.178.995l-8.691 6.433L52.047 4.56a.741.741 0 01.773 1.263L49.55 8.02l4.234-2.436a.727.727 0 01.996.253c.208.341.119.787-.208.995l-5.037 3.387 5.958-3.446a.75.75 0 01.995.237.732.732 0 01-.208.996l-8.943 6.18L57.47 8.332a.755.755 0 01.995.238.731.731 0 01-.193.996l-12.45 8.869 13.861-7.993a.74.74 0 01.773 1.263l-8.29 5.556 9.003-5.2a.741.741 0 01.995.253.754.754 0 01-.222 1.01l-5.32 3.477 5.691-3.284a.74.74 0 01.995.253.744.744 0 01-.237 1.01l-2.927 1.887 3.09-1.783a.737.737 0 01.995.253.744.744 0 01-.237 1.01l-.565.357.64-.372a.755.755 0 01.995.238.746.746 0 01-.194.995l-8.602 6.047 8.944-5.17a.74.74 0 01.773 1.263l-.194.118.03-.014a.754.754 0 01.996.237.731.731 0 01-.194.996l-1.663 1.188 1.56-.906a.747.747 0 01.935.163.74.74 0 01-.014.951l-2.823 3.254 2.733-1.575a.741.741 0 011.055.921l-.297.698a.76.76 0 01.728.357.733.733 0 01-.267 1.01l-1.575.906a.741.741 0 01-1.055-.92l.253-.61-4.665 2.69a.747.747 0 01-.936-.164.74.74 0 01.014-.951l2.823-3.254-10.89 6.285a.755.755 0 01-.995-.238.731.731 0 01.193-.995l1.664-1.189-6.15 3.55a.741.741 0 01-.773-1.262l.178-.119-4.115 2.377a.755.755 0 01-.995-.237.746.746 0 01.193-.996l8.602-6.046-15.317 8.84c-.075.088-.194.118-.327.118z" fill="#C6B5DD"/><path d="M11.8 55.487C5.146 49.693 1 41.433 1 32.267 1 14.735 16.198.532 34.947.532c18.75 0 33.947 14.203 33.947 31.733C68.894 49.797 53.696 64 34.947 64c-5.11 0-9.939-1.055-14.292-2.942" stroke="#263238" stroke-miterlimit="10"/><path d="M25.383 1.108l9.167 33.175 33.531-7.651" stroke="#263238" stroke-miterlimit="10"/></svg>