<svg width="65" height="64" fill="none" xmlns="http://www.w3.org/2000/svg"><circle cx="7.459" cy="7.459" r="6.959" fill="#C6B5DD" stroke="#263238" stroke-linecap="round"/><circle cx="37.454" cy="7.459" r="6.959" fill="#C6B5DD" stroke="#263238" stroke-linecap="round"/><circle cx="22.536" cy="32" r="6.959" fill="#C6B5DD" stroke="#263238" stroke-linecap="round"/><circle cx="26.707" cy="56.541" r="6.959" fill="#C6B5DD" stroke="#263238" stroke-linecap="round"/><circle cx="56.702" cy="56.541" r="6.959" fill="#C6B5DD" stroke="#263238" stroke-linecap="round"/><path d="M14.826 7.619h14.122m0 0L25.339 4.01m3.609 3.609l-3.609 3.61m8.86 45.312h13.95m0 0l-3.609-3.609m3.609 3.61L44.54 60.15M31.046 32.08h19.76c6.756 0 12.232-5.476 12.232-12.23 0-6.755-5.476-12.23-12.231-12.23h-5.895M31.046 32.08l3.69-3.689m-3.69 3.69l3.69 3.688M18.197 56.541h-4.845c-6.755 0-12.23-5.475-12.23-12.23 0-6.755 5.475-12.23 12.23-12.23H15.2m2.998 24.46l-3.69-3.689m3.69 3.69l-3.69 3.689" stroke="#263238" stroke-linecap="round"/></svg>