<svg width="64" height="64" fill="none" xmlns="http://www.w3.org/2000/svg"><path d="M38.773 7.273a6.773 6.773 0 11-13.546 0 6.773 6.773 0 0113.546 0zM22.305 19.432C24.592 18.084 28.112 16.5 32 16.5s7.408 1.583 9.695 2.932c1.772 1.045 2.896 3.093 2.896 5.363v.932c0 1.616-1.21 2.864-2.617 2.864H22.026c-1.408 0-2.617-1.248-2.617-2.864v-.932c0-2.27 1.124-4.318 2.896-5.363zm0 0l-.254-.43.254.43zm-2.441 22.75a6.773 6.773 0 11-13.546 0 6.773 6.773 0 0113.546 0zM3.396 54.341c2.287-1.348 5.807-2.932 9.695-2.932s7.408 1.584 9.695 2.932c1.772 1.045 2.896 3.093 2.896 5.364v.931c0 1.616-1.21 2.864-2.617 2.864H3.116C1.71 63.5.5 62.252.5 60.636v-.931c0-2.271 1.124-4.319 2.896-5.364zm0 0l-.254-.43.254.43zm54.286-12.159a6.773 6.773 0 11-13.546 0 6.773 6.773 0 0113.546 0zM41.214 54.341c2.288-1.348 5.807-2.932 9.695-2.932s7.408 1.584 9.695 2.932c1.772 1.045 2.896 3.093 2.896 5.364v.931c0 1.616-1.209 2.864-2.616 2.864h-19.95c-1.406 0-2.616-1.248-2.616-2.864v-.931c0-2.271 1.124-4.319 2.896-5.364zm0 0l-.253-.43.253.43z" fill="#C6B5DD" stroke="#263238"/><path d="M32 42v-9m0 9l7.5 6.5M32 42l-8 6.5" stroke="#263238" stroke-linecap="round" stroke-linejoin="round"/></svg>