<svg xmlns="http://www.w3.org/2000/svg" xmlns:xlink="http://www.w3.org/1999/xlink" viewBox="0 0 2136.18 1939.29"><defs><style>.cls-1{fill:url(#Безымянный_градиент_27);}.cls-2{fill:url(#Безымянный_градиент_32);}.cls-3{fill:#15ffb1;}.cls-4{fill:#4964ff;}.cls-5{fill:url(#Безымянный_градиент_32-2);}.cls-6{fill:url(#Безымянный_градиент_27-2);}</style><linearGradient id="Безымянный_градиент_27" x1="863.72" y1="1051.71" x2="1315.57" y2="1051.71" gradientTransform="matrix(1.83, 2.74, -1.83, 2.74, 1400.37, -4541.18)" gradientUnits="userSpaceOnUse"><stop offset="0.26" stop-color="#3f89bd"/><stop offset="1" stop-color="#ddf0fe"/></linearGradient><linearGradient id="Безымянный_градиент_32" x1="743.16" y1="1021.58" x2="1423.07" y2="1021.58" gradientTransform="matrix(2.08, 0.49, 0.15, 2.13, -1145.02, -1595.75)" gradientUnits="userSpaceOnUse"><stop offset="0.26" stop-color="#4477de"/><stop offset="1" stop-color="#93aaff"/></linearGradient><linearGradient id="Безымянный_градиент_32-2" x1="548.08" y1="878.86" x2="1248.6" y2="878.86" gradientTransform="matrix(2.07, 0.22, 0.56, 2, -1543.62, -1191.15)" xlink:href="#Безымянный_градиент_32"/><linearGradient id="Безымянный_градиент_27-2" x1="624.64" y1="876.73" x2="1076.48" y2="876.73" gradientTransform="matrix(1.62, 2.74, -1.62, 2.74, 616.57, -4114.89)" xlink:href="#Безымянный_градиент_27"/></defs><g id="Слой_2" data-name="Слой 2"><g id="Слой_2-2" data-name="Слой 2"><rect class="cls-1" x="822.33" y="1050.19" width="1294.71" height="533.92" transform="translate(-503.09 1262.16) rotate(-40.27)"/><polygon class="cls-2" points="583.94 1454.14 1119.58 526.32 1928.98 782.47 1393.34 1710.29 583.94 1454.14"/><path class="cls-3" d="M1119.81,526.92l808.43,255.84-535.13,926.93L584.68,1453.85l535.13-926.93m-.47-1.2L583.19,1454.43l810.39,256.46,536.15-928.7L1119.34,525.72Z"/><rect class="cls-4" x="403.18" y="408.67" width="1279" height="1023" transform="translate(-73.63 90.87) rotate(-4.82)"/><path class="cls-3" d="M1636.48,357.28l85.88,1018.38L448.88,1483.06,363,464.67,1636.48,357.28m.91-1.08L361.92,463.76,448,1484.14l1275.47-107.56-86-1020.38Z"/><polygon class="cls-5" points="223.98 1180.48 551.18 231.88 1392.88 350.34 1065.68 1298.94 223.98 1180.48"/><rect class="cls-6" x="0.37" y="343.69" width="1147.63" height="533.92" transform="translate(-262.82 655.36) rotate(-49.82)"/></g></g></svg>